<svg width="18" height="18" viewBox="0 0 18 18" fill="none" xmlns="http://www.w3.org/2000/svg">
<g clip-path="url(#clip0_19_303)">
<path d="M1.5 10.875H8.4375V18H2.8125C2.0925 18 1.5 17.4075 1.5 16.6875V10.875Z" fill="#939AED"/>
<path d="M16.5 10.875V16.6875C16.5 17.4075 15.9075 18 15.1875 18H9.5625V10.875H16.5Z" fill="#939AED"/>
<path d="M0 6.56245V8.43745C0 9.15745 0.5925 9.74995 1.3125 9.74995H1.5H8.4375V8.62495V5.24995H1.3125C0.5925 5.24995 0 5.84245 0 6.56245Z" fill="#939AED"/>
<path d="M16.6875 5.24995H9.5625V8.62495V9.74995H16.5H16.6875C17.4075 9.74995 18 9.15745 18 8.43745V6.56245C18 5.84245 17.4075 5.24995 16.6875 5.24995Z" fill="#939AED"/>
<path d="M8.9998 6.03294C8.8363 6.03294 8.6803 5.96169 8.57455 5.83794C8.4673 5.71419 8.42005 5.54994 8.4433 5.38794C8.7208 3.51294 10.1855 -0.0338135 13.7465 -0.0338135C15.779 -0.0330635 16.4998 1.06494 16.4998 2.00544C16.4998 3.67719 14.1725 6.03294 8.9998 6.03294ZM13.7465 1.09194C11.06 1.09194 10.04 3.64569 9.7018 4.89144C11.8213 4.79244 13.1578 4.25619 13.9273 3.79944C14.9945 3.16569 15.3748 2.45694 15.3748 2.00469C15.3748 1.33119 14.534 1.09194 13.7465 1.09194Z" fill="#939AED"/>
<path d="M9.00097 6.03304C3.82823 6.03304 1.50098 3.67729 1.50098 2.00554C1.50098 1.06504 2.22248 -0.032959 4.25498 -0.032959C7.81522 -0.032959 9.27997 3.51379 9.55747 5.38879C9.58072 5.55079 9.53347 5.71504 9.42622 5.83879C9.32047 5.96179 9.16447 6.03304 9.00097 6.03304ZM4.25498 1.09204C3.46748 1.09204 2.62598 1.33204 2.62598 2.00554C2.62598 2.96329 4.30073 4.70854 8.29822 4.89229C7.96072 3.64579 6.94072 1.09204 4.25498 1.09204Z" fill="#939AED"/>
</g>
<defs>
<clipPath id="clip0_19_303">
<rect width="18" height="18" fill="white"/>
</clipPath>
</defs>
</svg>
