<svg width="19" height="19" viewBox="0 0 19 19" fill="none" xmlns="http://www.w3.org/2000/svg">
<g clip-path="url(#clip0_334_1203)">
<path d="M10.285 0.00434685C10.0743 0.0238266 9.35285 0.1437 8.87488 0.236603C8.52902 0.304031 8.43996 0.32501 8.27668 0.380451C8.17425 0.413416 8.15199 0.416414 8.0941 0.401428C8.008 0.378952 7.63097 0.357975 7.12332 0.345987C6.22972 0.323511 5.77254 0.425404 5.29011 0.750561C4.95465 0.978321 4.69636 1.25853 4.45441 1.6601C4.30894 1.90135 4.27035 2.11563 4.30004 2.54118C4.32379 2.87832 4.37574 3.0866 4.53902 3.50167C4.86113 4.31381 5.28863 4.89969 6.45535 6.12391C7.30441 7.01697 7.58347 7.33313 7.58347 7.40656C7.58347 7.43952 7.57754 7.44252 7.50183 7.44252C7.39644 7.44252 7.34746 7.42154 7.1634 7.29567C6.94965 7.15033 6.70176 6.95553 6.23269 6.56444C5.5484 5.99504 5.44894 5.91413 5.19511 5.71484C4.78988 5.40017 4.46926 5.18889 4.24808 5.09149C3.86957 4.92517 3.24613 4.82777 2.78746 4.86373C2.2516 4.90719 1.84488 5.04504 1.43816 5.32075C1.04183 5.59197 0.40949 6.20332 0.323397 6.40111C0.265506 6.53298 0.231365 6.80869 0.204647 7.35111C0.182381 7.78566 0.197225 8.06287 0.262537 8.49141L0.302615 8.75364L0.212068 9.09078C0.0710529 9.60924 0.0205841 9.97485 0.00277165 10.5592C-0.0135565 11.1436 0.0413654 11.5002 0.191287 11.8059C0.38574 12.1985 0.95574 12.8593 1.37137 13.171C1.61777 13.3568 1.9666 13.4842 2.38816 13.5426C2.60933 13.5741 3.07988 13.5696 3.23426 13.5351C3.4391 13.4902 3.75676 13.3808 3.91261 13.3014C4.20652 13.153 4.6934 12.8024 5.30496 12.2974C6.23566 11.5302 6.60675 11.238 6.75965 11.1556C6.83683 11.1122 6.86207 11.1062 6.96004 11.1062C7.058 11.1062 7.08027 11.1122 7.14855 11.1511L7.22425 11.1976L6.868 11.5707C5.17136 13.3538 4.91605 13.661 4.58504 14.3203C4.30004 14.8897 4.10261 15.4905 4.0284 16.0135C3.98238 16.3476 4.01058 16.983 4.08777 17.2872C4.14418 17.5119 4.24511 17.7607 4.33715 17.894C4.46777 18.0858 4.66816 18.3361 4.68894 18.3361C4.74683 18.3361 5.04371 18.0993 5.11199 17.9989C5.14019 17.9584 5.17433 17.894 5.18769 17.8566C5.22332 17.7562 5.22926 17.5344 5.20254 17.2662C5.17136 16.9575 5.17136 16.496 5.20105 16.3192C5.23074 16.1469 5.32277 15.8022 5.40738 15.5565C5.56324 15.095 5.75027 14.7234 6.07683 14.2229C6.40785 13.7164 7.00308 12.9492 7.33113 12.6061C7.46324 12.4682 7.73933 12.2405 7.75566 12.2555C7.7616 12.2629 7.63246 12.5866 7.51222 12.8593C7.4291 13.0496 7.248 13.4137 7.08621 13.7134C6.79675 14.2499 6.68988 14.4881 6.65425 14.6754C6.59636 14.9826 6.56816 15.3812 6.56816 15.8936C6.56816 16.3431 6.57113 16.4181 6.60082 16.6129C6.63941 16.8571 6.70918 17.1987 6.75371 17.3516C6.85613 17.7052 7.09511 18.0888 7.40386 18.396C7.71558 18.7077 7.9991 18.853 8.48746 18.9534C8.65371 18.9864 8.69675 18.9879 9.17918 18.9744C9.63043 18.9609 9.77441 18.9249 10.3815 18.6807C10.7303 18.5398 10.8951 18.4814 11.1089 18.4215C11.6996 18.2566 12.1524 18.2132 12.4997 18.2881C12.6571 18.3226 12.6586 18.3226 12.715 18.2941C12.7461 18.2776 12.8782 18.2297 13.0074 18.1877C13.138 18.1458 13.2968 18.0828 13.3621 18.0469C13.7911 17.8161 14.6402 17.004 14.8124 16.6578C14.946 16.3881 15.0469 15.8397 15.0306 15.4651C15.0098 15.0036 14.8747 14.599 14.5704 14.088C14.3789 13.7644 14.2201 13.5711 13.8193 13.1665C13.4631 12.8069 13.1914 12.5626 12.4596 11.9378C11.5512 11.1646 11.2276 10.8679 11.238 10.817C11.241 10.802 11.2543 10.793 11.2721 10.796C11.3271 10.8065 11.6432 11.0208 12.47 11.6096C13.325 12.218 13.6798 12.4383 14.0301 12.5821C14.8168 12.9013 15.6362 13.0676 16.3146 13.0421C16.705 13.0286 16.9766 12.9642 17.2839 12.8129C17.4605 12.726 17.7633 12.5252 17.9815 12.3484C18.1953 12.176 18.5871 11.7805 18.6836 11.6411C18.8781 11.3579 19.0146 10.805 18.9939 10.3854C18.982 10.1562 18.9434 9.98384 18.8068 9.53132C18.6688 9.0743 18.5768 8.73416 18.55 8.58881C18.5189 8.41499 18.5263 7.89055 18.5664 7.5549C18.6079 7.20277 18.6228 6.68581 18.599 6.47604C18.5619 6.15387 18.4714 5.81823 18.3526 5.559C18.1537 5.12446 17.6876 4.67044 17.2096 4.44417C16.9276 4.31231 16.512 4.21192 16.034 4.15947C15.7846 4.134 15.2532 4.14898 15.0276 4.18944C14.6654 4.25387 14.0865 4.4217 13.9663 4.49512C13.806 4.59402 13.4067 4.97012 12.5264 5.8452C12.1717 6.19883 11.7575 6.6064 11.6061 6.75025C11.3568 6.9885 11.1861 7.12935 11.1682 7.11137C11.1489 7.09039 11.4369 6.64686 12.1479 5.59946C13.1365 4.14449 13.2805 3.89725 13.4334 3.40127C13.6575 2.66854 13.4438 1.67809 12.9005 0.924379C12.7239 0.680136 12.4908 0.491335 12.1553 0.319016C11.8689 0.172171 11.5839 0.0822659 11.2499 0.0328178C11.0985 0.0103416 10.429 -0.00913811 10.285 0.00434685Z" fill="#939AED"/>
</g>
<defs>
<clipPath id="clip0_334_1203">
<rect width="19" height="19" fill="white"/>
</clipPath>
</defs>
</svg>
